<?xml version="1.0" standalone="no"?>
<!DOCTYPE svg PUBLIC "-//W3C//DTD SVG 20010904//EN"
 "http://www.w3.org/TR/2001/REC-SVG-20010904/DTD/svg10.dtd">
<svg version="1.0" xmlns="http://www.w3.org/2000/svg"
 width="820.000000pt" height="215.000000pt" viewBox="0 0 820.000000 215.000000"
 preserveAspectRatio="xMidYMid meet">

<g transform="translate(0.000000,215.000000) scale(0.100000,-0.100000)"
fill="#000000" stroke="none">
<path d="M284 1705 c-65 -33 -93 -59 -129 -120 l-30 -50 0 -640 c0 -595 1
-643 18 -676 25 -50 90 -113 145 -141 l47 -23 3765 0 3765 0 47 24 c65 32 122
94 147 158 20 53 21 71 21 652 0 397 -4 609 -11 632 -18 58 -40 92 -87 136
-85 80 305 73 -3892 73 l-3756 0 -50 -25z m3379 -473 c79 -35 123 -77 159
-149 31 -63 32 -73 33 -177 0 -122 -5 -156 -29 -208 -30 -62 -75 -106 -144
-140 -61 -30 -74 -33 -162 -33 -105 0 -154 18 -229 81 -117 100 -146 338 -60
492 28 50 62 92 75 92 3 0 20 10 37 22 72 52 227 61 320 20z m792 -1 c65 -29
102 -64 131 -126 25 -53 23 -61 -16 -68 -100 -18 -110 -18 -110 -7 0 26 -45
74 -88 92 -90 40 -213 -7 -257 -98 -23 -50 -30 -137 -15 -208 9 -45 21 -69 53
-103 22 -24 50 -49 61 -55 35 -19 151 -11 203 14 47 23 48 24 51 76 l3 52 -85
0 -86 0 0 60 0 61 158 -3 157 -3 0 -145 0 -144 -65 -38 c-152 -88 -338 -88
-456 1 -87 66 -131 152 -141 276 -6 80 15 183 47 227 11 15 20 30 20 33 0 10
71 70 112 93 57 33 102 42 193 38 56 -2 95 -9 130 -25z m-1713 -278 l3 -298
183 -3 182 -2 0 -60 0 -60 -252 2 -253 3 -3 358 -2 357 70 0 70 0 2 -297z
m2138 -63 l0 -360 -70 0 -70 0 0 360 0 360 70 0 70 0 0 -360z m348 268 c32
-51 67 -108 77 -127 9 -18 31 -54 49 -80 18 -25 46 -70 61 -98 16 -29 32 -53
37 -53 4 0 8 101 8 225 l0 225 70 0 70 0 -2 -357 -3 -358 -75 0 -75 0 -101
165 c-56 91 -117 189 -135 218 l-34 54 -5 -219 -5 -218 -70 0 -70 0 -2 349
c-1 192 0 353 3 358 3 4 36 8 74 8 l68 0 60 -92z"/>
<path d="M3453 1126 c-80 -30 -121 -94 -130 -207 -9 -109 30 -202 109 -253 39
-25 129 -23 184 5 73 38 99 95 99 219 0 117 -22 175 -83 215 -46 31 -129 41
-179 21z"/>
</g>
</svg>
